# xmcd
#
# Track frame offsets:
#	150
#	13810
#	29292
#	41717
#	52807
#	64380
#	75360
#	86570
#	100632
#	116305
#	134002
#	143847
#	153512
#	169222
#	185450
#	198445
#	210277
#	228252
#
# Disc length: 3231 seconds
#
# Revision: 0
# Processed by: cddbd v1.5.1PL2 Copyright (c) Steve Scherf et al.
# Submitted via: audiograbber 1.83.01
#
DISCID=e90c9d12
DTITLE=паидиа апо тгм патяа - лецакес епитувиес мО 2
DYEAR=1993
DGENRE=каийа
TTITLE0=ои лпуяес 
TTITLE1=олыс ецы еилаи тяеккос 
TTITLE2=сам то пайето  (аккг ацапг епиасес) 
TTITLE3=жике г цумаийа лоу се еяытеухгйе 
TTITLE4=о акежамтос 
TTITLE5=о ояволемос 
TTITLE6=пийяамес том жамтаяо 
TTITLE7=жеяе йаи лиа жикг соу лафи 
TTITLE8=йаяабам 
TTITLE9=вамолаи 
TTITLE10=ла ас леимоуле жикои 
TTITLE11=упгяна памта кахос  (г дег) 
TTITLE12=йахе цумаийа 
TTITLE13=апоье паки 
TTITLE14=се фгты 
TTITLE15=о выяислос дем еим' апкос 
TTITLE16=цумаийа тгс мувтас 
TTITLE17=тыяа то неяы 
EXTD=
EXTT0=
EXTT1=
EXTT2=
EXTT3=
EXTT4=
EXTT5=
EXTT6=
EXTT7=
EXTT8=
EXTT9=
EXTT10=
EXTT11=
EXTT12=
EXTT13=
EXTT14=
EXTT15=
EXTT16=
EXTT17=
PLAYORDER=
